<mxfile host="65bd71144e">
    <diagram id="c_P2Mek_exvkk5rt1HEj" name="Page-1">
        <mxGraphModel dx="673" dy="681" grid="1" gridSize="10" guides="1" tooltips="1" connect="1" arrows="1" fold="1" page="1" pageScale="1" pageWidth="850" pageHeight="1100" math="0" shadow="0">
            <root>
                <mxCell id="0"/>
                <mxCell id="1" parent="0"/>
                <mxCell id="2" value="Ordering Service" style="rounded=0;whiteSpace=wrap;html=1;" parent="1" vertex="1">
                    <mxGeometry x="290" y="100" width="120" height="60" as="geometry"/>
                </mxCell>
                <mxCell id="3" value="Scoop Service" style="rounded=0;whiteSpace=wrap;html=1;" vertex="1" parent="1">
                    <mxGeometry x="120" y="200" width="120" height="60" as="geometry"/>
                </mxCell>
                <mxCell id="4" value="Toppings Service" style="rounded=0;whiteSpace=wrap;html=1;" vertex="1" parent="1">
                    <mxGeometry x="290" y="200" width="120" height="60" as="geometry"/>
                </mxCell>
                <mxCell id="5" value="Cone Service" style="rounded=0;whiteSpace=wrap;html=1;" vertex="1" parent="1">
                    <mxGeometry x="460" y="200" width="120" height="60" as="geometry"/>
                </mxCell>
                <mxCell id="7" value="Mixing Service" style="rounded=0;whiteSpace=wrap;html=1;" vertex="1" parent="1">
                    <mxGeometry x="290" y="300" width="120" height="60" as="geometry"/>
                </mxCell>
                <mxCell id="8" value="Delivery Service" style="rounded=0;whiteSpace=wrap;html=1;" vertex="1" parent="1">
                    <mxGeometry x="290" y="400" width="120" height="60" as="geometry"/>
                </mxCell>
            </root>
        </mxGraphModel>
    </diagram>
</mxfile>
